<svg xmlns="http://www.w3.org/2000/svg" viewBox="120 600 1280 375" preserveAspectRatio="xMidYMid meet">
  <!-- NOUS wordmark -->
  <g fill="#ffffff" fill-opacity="1"><g transform="translate(134.015647, 889.434743)"><g><path d="M 70 0 L 14 0 L 14 -251.984375 C 14 -259.679688 16.738281 -266.269531 22.21875 -271.75 C 27.707031 -277.238281 34.300781 -279.984375 42 -279.984375 C 49.695312 -279.984375 56.347656 -277.1875 61.953125 -271.59375 L 237.984375 -95.546875 L 237.984375 -279.984375 L 293.984375 -279.984375 L 293.984375 -28 C 293.984375 -20.300781 291.238281 -13.707031 285.75 -8.21875 C 280.269531 -2.738281 273.679688 0 265.984375 0 C 258.285156 0 251.632812 -2.800781 246.03125 -8.40625 L 70 -184.4375 Z"/></g></g></g>
  <g fill="#ffffff" fill-opacity="1"><g transform="translate(442.00408, 889.434743)"><g><path d="M 237.984375 0 L 70 0 C 59.726562 0 50.332031 -2.503906 41.8125 -7.515625 C 33.300781 -12.535156 26.535156 -19.300781 21.515625 -27.8125 C 16.503906 -36.332031 14 -45.726562 14 -56 L 14 -223.984375 C 14 -234.253906 16.503906 -243.644531 21.515625 -252.15625 C 26.535156 -260.675781 33.300781 -267.441406 41.8125 -272.453125 C 50.332031 -277.472656 59.726562 -279.984375 70 -279.984375 L 237.984375 -279.984375 C 248.253906 -279.984375 257.644531 -277.472656 266.15625 -272.453125 C 274.675781 -267.441406 281.441406 -260.675781 286.453125 -252.15625 C 291.472656 -243.644531 293.984375 -234.253906 293.984375 -223.984375 L 293.984375 -56 C 293.984375 -45.96875 291.472656 -36.691406 286.453125 -28.171875 C 281.441406 -19.660156 274.734375 -12.835938 266.328125 -7.703125 C 257.929688 -2.566406 248.484375 0 237.984375 0 Z M 70 -223.984375 L 70 -56 L 237.984375 -56 L 237.984375 -223.984375 Z"/></g></g></g>
  <g fill="#ffffff" fill-opacity="1"><g transform="translate(749.992514, 889.434743)"><g><path d="M 237.984375 0 L 70 0 C 59.726562 0 50.332031 -2.503906 41.8125 -7.515625 C 33.300781 -12.535156 26.535156 -19.300781 21.515625 -27.8125 C 16.503906 -36.332031 14 -45.726562 14 -56 L 14 -279.984375 L 70 -279.984375 L 70 -56 L 237.984375 -56 L 237.984375 -279.984375 L 293.984375 -279.984375 L 293.984375 -56 C 293.984375 -45.726562 291.472656 -36.332031 286.453125 -27.8125 C 281.441406 -19.300781 274.675781 -12.535156 266.15625 -7.515625 C 257.644531 -2.503906 248.253906 0 237.984375 0 Z"/></g></g></g>
  <g fill="#ffffff" fill-opacity="1"><g transform="translate(1057.98097, 889.434743)"><g><path d="M 293.984375 -279.984375 L 293.984375 -223.984375 L 70 -223.984375 L 70 -168 L 237.984375 -168 C 248.253906 -168 257.644531 -165.488281 266.15625 -160.46875 C 274.675781 -155.445312 281.441406 -148.675781 286.453125 -140.15625 C 291.472656 -131.644531 293.984375 -122.257812 293.984375 -112 L 293.984375 -56 C 293.984375 -45.726562 291.472656 -36.332031 286.453125 -27.8125 C 281.441406 -19.300781 274.675781 -12.535156 266.15625 -7.515625 C 257.644531 -2.503906 248.253906 0 237.984375 0 L 14 0 L 14 -56 L 237.984375 -56 L 237.984375 -112 L 70 -112 C 59.726562 -112 50.332031 -114.503906 41.8125 -119.515625 C 33.300781 -124.535156 26.535156 -131.300781 21.515625 -139.8125 C 16.503906 -148.332031 14 -157.726562 14 -168 L 14 -223.984375 C 14 -234.253906 16.503906 -243.644531 21.515625 -252.15625 C 26.535156 -260.675781 33.300781 -267.441406 41.8125 -272.453125 C 50.332031 -277.472656 59.726562 -279.984375 70 -279.984375 Z"/></g></g></g>
  <!-- Slogan: TURN DATA INTO DECISIONS -->
  <g fill="#ffffff" fill-opacity="0.45"><g transform="translate(150.00002, 957.38145)"><g><path d="M 11.46875 0 L 11.46875 -32.265625 L 0.640625 -32.265625 L 0.640625 -36.40625 L 26.78125 -36.40625 L 26.78125 -32.265625 L 15.953125 -32.265625 L 15.953125 0 Z"/></g></g></g>
  <g fill="#ffffff" fill-opacity="0.45"><g transform="translate(177.420509, 957.38145)"><g><path d="M 8.796875 0 L 3.609375 -5.1875 L 3.609375 -36.40625 L 8.109375 -36.40625 L 8.109375 -6.71875 L 10.8125 -4 L 23.90625 -4 L 26.625 -6.71875 L 26.625 -36.40625 L 31.125 -36.40625 L 31.125 -5.1875 L 25.9375 0 Z"/></g></g></g>
  <g fill="#ffffff" fill-opacity="0.45"><g transform="translate(212.153129, 957.38145)"><g><path d="M 4.296875 0 L 4.296875 -36.40625 L 24.203125 -36.40625 L 29.34375 -31.21875 L 29.34375 -19.609375 L 24.203125 -14.421875 L 24.0625 -14.421875 L 30.625 0 L 25.640625 0 L 19.171875 -14.421875 L 8.796875 -14.421875 L 8.796875 0 Z M 8.796875 -18.421875 L 22.1875 -18.421875 L 24.84375 -21.140625 L 24.84375 -29.6875 L 22.1875 -32.40625 L 8.796875 -32.40625 Z"/></g></g></g>
  <g fill="#ffffff" fill-opacity="0.45"><g transform="translate(245.601185, 957.38145)"><g><path d="M 4.296875 0 L 4.296875 -36.40625 L 10.421875 -36.40625 L 26.671875 -7.109375 L 26.671875 -36.40625 L 31.171875 -36.40625 L 31.171875 0 L 25.84375 0 L 9.875 -28.75 L 8.796875 -28.75 L 8.796875 0 Z"/></g></g></g>
  <g fill="#ffffff" fill-opacity="0.45"><g transform="translate(292.043103, 957.38145)"><g><path d="M 4.296875 0 L 4.296875 -36.40625 L 24.0625 -36.40625 L 31.625 -28.75 L 31.625 -7.65625 L 24.0625 0 Z M 8.796875 -4 L 22.03125 -4 L 27.125 -9.1875 L 27.125 -27.21875 L 22.03125 -32.40625 L 8.796875 -32.40625 Z"/></g></g></g>
  <g fill="#ffffff" fill-opacity="0.45"><g transform="translate(326.133378, 957.38145)"><g><path d="M 0.6875 0 L 13 -36.40625 L 19.953125 -36.40625 L 32.265625 0 L 27.5625 0 L 24.453125 -9.484375 L 8.5 -9.484375 L 5.4375 0 Z M 9.828125 -13.4375 L 23.171875 -13.4375 L 17.046875 -32.15625 L 15.90625 -32.15625 Z"/></g></g></g>
  <g fill="#ffffff" fill-opacity="0.45"><g transform="translate(355.282794, 957.38145)"><g><path d="M 11.46875 0 L 11.46875 -32.265625 L 0.640625 -32.265625 L 0.640625 -36.40625 L 26.78125 -36.40625 L 26.78125 -32.265625 L 15.953125 -32.265625 L 15.953125 0 Z"/></g></g></g>
  <g fill="#ffffff" fill-opacity="0.45"><g transform="translate(378.898728, 957.38145)"><g><path d="M 0.6875 0 L 13 -36.40625 L 19.953125 -36.40625 L 32.265625 0 L 27.5625 0 L 24.453125 -9.484375 L 8.5 -9.484375 L 5.4375 0 Z M 9.828125 -13.4375 L 23.171875 -13.4375 L 17.046875 -32.15625 L 15.90625 -32.15625 Z"/></g></g></g>
  <g fill="#ffffff" fill-opacity="0.45"><g transform="translate(422.82092, 957.38145)"><g><path d="M 3.0625 0 L 3.0625 -4.15625 L 7.515625 -4.15625 L 7.515625 -32.265625 L 3.0625 -32.265625 L 3.0625 -36.40625 L 16.453125 -36.40625 L 16.453125 -32.265625 L 12 -32.265625 L 12 -4.15625 L 16.453125 -4.15625 L 16.453125 0 Z"/></g></g></g>
  <g fill="#ffffff" fill-opacity="0.45"><g transform="translate(442.336391, 957.38145)"><g><path d="M 4.296875 0 L 4.296875 -36.40625 L 10.421875 -36.40625 L 26.671875 -7.109375 L 26.671875 -36.40625 L 31.171875 -36.40625 L 31.171875 0 L 25.84375 0 L 9.875 -28.75 L 8.796875 -28.75 L 8.796875 0 Z"/></g></g></g>
  <g fill="#ffffff" fill-opacity="0.45"><g transform="translate(477.81012, 957.38145)"><g><path d="M 11.46875 0 L 11.46875 -32.265625 L 0.640625 -32.265625 L 0.640625 -36.40625 L 26.78125 -36.40625 L 26.78125 -32.265625 L 15.953125 -32.265625 L 15.953125 0 Z"/></g></g></g>
  <g fill="#ffffff" fill-opacity="0.45"><g transform="translate(505.230596, 957.38145)"><g><path d="M 8.546875 0 L 3.359375 -5.1875 L 3.359375 -31.21875 L 8.546875 -36.40625 L 25.734375 -36.40625 L 30.921875 -31.21875 L 30.921875 -5.1875 L 25.734375 0 Z M 10.578125 -4 L 23.71875 -4 L 26.4375 -6.71875 L 26.4375 -29.6875 L 23.71875 -32.40625 L 10.578125 -32.40625 L 7.859375 -29.6875 L 7.859375 -6.71875 Z"/></g></g></g>
  <g fill="#ffffff" fill-opacity="0.45"><g transform="translate(550.486757, 957.38145)"><g><path d="M 4.296875 0 L 4.296875 -36.40625 L 24.0625 -36.40625 L 31.625 -28.75 L 31.625 -7.65625 L 24.0625 0 Z M 8.796875 -4 L 22.03125 -4 L 27.125 -9.1875 L 27.125 -27.21875 L 22.03125 -32.40625 L 8.796875 -32.40625 Z"/></g></g></g>
  <g fill="#ffffff" fill-opacity="0.45"><g transform="translate(585.318221, 957.38145)"><g><path d="M 4.296875 0 L 4.296875 -36.40625 L 28.3125 -36.40625 L 28.3125 -32.265625 L 8.796875 -32.265625 L 8.796875 -21.1875 L 26.234375 -21.1875 L 26.234375 -17.09375 L 8.796875 -17.09375 L 8.796875 -4.15625 L 28.3125 -4.15625 L 28.3125 0 Z"/></g></g></g>
  <g fill="#ffffff" fill-opacity="0.45"><g transform="translate(616.197124, 957.38145)"><g><path d="M 8.546875 0 L 3.359375 -5.1875 L 3.359375 -31.21875 L 8.546875 -36.40625 L 25 -36.40625 L 30.03125 -31.375 L 27.171875 -28.453125 L 23.21875 -32.40625 L 10.578125 -32.40625 L 7.859375 -29.6875 L 7.859375 -6.71875 L 10.578125 -4 L 23.609375 -4 L 27.625 -8 L 30.484375 -5.09375 L 25.34375 0 Z"/></g></g></g>
  <g fill="#ffffff" fill-opacity="0.45"><g transform="translate(648.162988, 957.38145)"><g><path d="M 3.0625 0 L 3.0625 -4.15625 L 7.515625 -4.15625 L 7.515625 -32.265625 L 3.0625 -32.265625 L 3.0625 -36.40625 L 16.453125 -36.40625 L 16.453125 -32.265625 L 12 -32.265625 L 12 -4.15625 L 16.453125 -4.15625 L 16.453125 0 Z"/></g></g></g>
  <g fill="#ffffff" fill-opacity="0.45"><g transform="translate(667.678458, 957.38145)"><g><path d="M 4.34375 0 L 4.34375 -4.15625 L 22.28125 -4.15625 L 24.953125 -6.875 L 24.953125 -14.125 L 22.28125 -16.84375 L 8.203125 -16.84375 L 3.0625 -21.984375 L 3.0625 -31.21875 L 8.203125 -36.40625 L 27.5625 -36.40625 L 27.5625 -32.265625 L 10.234375 -32.265625 L 7.515625 -29.546875 L 7.5625 -23.515625 L 10.234375 -20.796875 L 24.3125 -20.796875 L 29.453125 -15.609375 L 29.453125 -5.1875 L 24.3125 0 Z"/></g></g></g>
  <g fill="#ffffff" fill-opacity="0.45"><g transform="translate(700.187779, 957.38145)"><g><path d="M 3.0625 0 L 3.0625 -4.15625 L 7.515625 -4.15625 L 7.515625 -32.265625 L 3.0625 -32.265625 L 3.0625 -36.40625 L 16.453125 -36.40625 L 16.453125 -32.265625 L 12 -32.265625 L 12 -4.15625 L 16.453125 -4.15625 L 16.453125 0 Z"/></g></g></g>
  <g fill="#ffffff" fill-opacity="0.45"><g transform="translate(719.703295, 957.38145)"><g><path d="M 8.546875 0 L 3.359375 -5.1875 L 3.359375 -31.21875 L 8.546875 -36.40625 L 25.734375 -36.40625 L 30.921875 -31.21875 L 30.921875 -5.1875 L 25.734375 0 Z M 10.578125 -4 L 23.71875 -4 L 26.4375 -6.71875 L 26.4375 -29.6875 L 23.71875 -32.40625 L 10.578125 -32.40625 L 7.859375 -29.6875 L 7.859375 -6.71875 Z"/></g></g></g>
  <g fill="#ffffff" fill-opacity="0.45"><g transform="translate(753.991256, 957.38145)"><g><path d="M 4.296875 0 L 4.296875 -36.40625 L 10.421875 -36.40625 L 26.671875 -7.109375 L 26.671875 -36.40625 L 31.171875 -36.40625 L 31.171875 0 L 25.84375 0 L 9.875 -28.75 L 8.796875 -28.75 L 8.796875 0 Z"/></g></g></g>
  <g fill="#ffffff" fill-opacity="0.45"><g transform="translate(789.464962, 957.38145)"><g><path d="M 4.34375 0 L 4.34375 -4.15625 L 22.28125 -4.15625 L 24.953125 -6.875 L 24.953125 -14.125 L 22.28125 -16.84375 L 8.203125 -16.84375 L 3.0625 -21.984375 L 3.0625 -31.21875 L 8.203125 -36.40625 L 27.5625 -36.40625 L 27.5625 -32.265625 L 10.234375 -32.265625 L 7.515625 -29.546875 L 7.5625 -23.515625 L 10.234375 -20.796875 L 24.3125 -20.796875 L 29.453125 -15.609375 L 29.453125 -5.1875 L 24.3125 0 Z"/></g></g></g>
</svg>
